Coordinates
version=1
nRows=9
nColumns=24
inDegrees=yes

Units are S.I. units (second, meters, Newtons, ...)
Angles are in degrees.

endheader
time	pelvis_tilt	pelvis_list	pelvis_rotation	pelvis_tx	pelvis_ty	pelvis_tz	hip_flexion_r	hip_adduction_r	hip_rotation_r	knee_angle_r	ankle_angle_r	subtalar_angle_r	mtp_angle_r	hip_flexion_l	hip_adduction_l	hip_rotation_l	knee_angle_l	ankle_angle_l	subtalar_angle_l	mtp_angle_l	lumbar_extension	lumbar_bending	lumbar_rotation
      1.32550000	      0.21347572	      4.68295521	     -4.30806491	      0.20741708	      1.07500421	      0.32939317	     15.54102304	     -6.13666483	     -0.53003090	    -65.65013690	     -9.02267924	    -12.21861067	      9.09625527	      6.67828591	     10.02485976	     -2.30033346	     -3.42923251	     -6.41002634	    -13.42493533	     -1.68056585	      4.11380908	     -1.66953543	      2.31011705
      1.32966667	      0.22839767	      4.75117932	     -4.32630000	      0.21231290	      1.07548945	      0.32922576	     16.17687702	     -6.15196724	     -0.31245448	    -65.67890396	     -8.48927352	    -12.44855179	      9.05431825	      6.28893201	     10.14325022	     -2.26797982	     -3.25686410	     -6.27380323	    -13.34685336	     -1.71934691	      4.08335330	     -1.69377899	      2.26541308
      1.33383333	      0.20901996	      4.77012754	     -4.33511171	      0.21730629	      1.07597627	      0.32926602	     16.80674812	     -6.07944771	     -0.09534315	    -65.61724035	     -7.80782762	    -12.67039630	      8.99106528	      5.92762926	     10.18329882	     -2.32216894	     -3.09257649	     -6.09461218	    -13.26523366	     -1.78094291	      4.07304340	     -1.76525675	      2.21823948
      1.33800000	      0.20673994	      4.80354820	     -4.34166074	      0.22227838	      1.07646363	      0.32920670	     17.40872665	     -6.03422199	      0.11725089	    -65.49826771	     -7.21950730	    -12.82923247	      8.93245602	      5.54076471	     10.25073605	     -2.32600723	     -2.90781734	     -5.93596538	    -13.16095531	     -1.83836343	      4.05584042	     -1.80566260	      2.16926186
      1.34216667	      0.21777061	      4.83660701	     -4.34813441	      0.22722272	      1.07695491	      0.32915520	     17.98393947	     -5.98322065	      0.32953869	    -65.31986333	     -6.64137791	    -12.94657362	      8.87157959	      5.13743420	     10.31897432	     -2.33707883	     -2.71689972	     -5.77960203	    -13.05324841	     -1.89947520	      4.02370599	     -1.84443530	      2.11731716
      1.34633333	      0.23892041	      4.87634456	     -4.36289729	      0.23214723	      1.07743777	      0.32903868	     18.53873870	     -5.94510951	      0.54925669	    -65.07587873	     -6.23510671	    -13.03905178	      8.83964011	      4.70820703	     10.40254018	     -2.26572078	     -2.48863360	     -5.67965002	    -12.95526101	     -1.93102745	      3.99362188	     -1.83175235	      2.07312836
      1.35050000	      0.25695553	      4.90224963	     -4.36805652	      0.23712875	      1.07792400	      0.32901626	     19.06703092	     -5.87779827	      0.76030041	    -64.77428323	     -5.63546407	    -13.13755049	      8.79932436	      4.28038045	     10.46197690	     -2.26896963	     -2.27148962	     -5.52220395	    -12.86799993	     -1.97351086	      3.96011796	     -1.87921887	      2.02485005
      1.35466667	      0.26216311	      4.91184205	     -4.33693721	      0.24206913	      1.07838820	      0.32903382	     19.58279593	     -5.78845136	      0.94304994	    -64.40658241	     -5.00103466	    -13.11852500	      8.73544728	      3.87737000	     10.49645812	     -2.32944131	     -2.07968657	     -5.34908906	    -12.73745199	     -2.04377648	      3.90473182	     -1.94116762	      1.96133429
      1.35883333	      0.24906939	      4.91556993	     -4.30480145	      0.24705003	      1.07881968	      0.32901381	     20.09581764	     -5.69256712	      1.13228111	    -63.94558714	     -4.79810692	    -13.14077052	      8.72078132	      3.46817844	     10.52436360	     -2.25335325	     -1.84318289	     -5.30174684	    -12.66407669	     -2.05846797	      3.84909448	     -1.94692370	      1.93304854
